<svg xmlns="http://www.w3.org/2000/svg" xmlns:xlink="http://www.w3.org/1999/xlink">

<symbol id="codebase" viewBox="0 0 543.232 543.232" fill-rule="evenodd" clip-rule="evenodd" stroke-linejoin="round" stroke-miterlimit="1.414"><g><path d="m481.081 438.5h-450.162c-17.076 0-30.919-13.843-30.919-30.919v-270.479h512v270.479c0 17.076-13.843 30.919-30.919 30.919z" fill="#a9dbf5"/><path d="m481.095 137.102v301.398c17.069 0 30.905-13.849 30.905-30.932v-270.466z" fill="#88c3e0"/><g fill="#43809f"><path d="m103.87 233.967c-2.929-2.928-7.678-2.928-10.606 0l-46.431 46.431c-2.929 2.93-2.929 7.678 0 10.607l45.816 45.816c1.464 1.464 3.384 2.196 5.303 2.196s3.839-.732 5.303-2.196c2.929-2.93 2.929-7.678 0-10.607l-40.513-40.513 41.127-41.127c2.93-2.929 2.93-7.678.001-10.607z"/><path d="m264.52 280.397-46.431-46.431c-2.929-2.928-7.678-2.928-10.606 0-2.929 2.93-2.929 7.678 0 10.607l41.127 41.127-40.513 40.513c-2.929 2.93-2.929 7.678 0 10.607 1.464 1.464 3.384 2.196 5.303 2.196s3.839-.732 5.303-2.196l45.817-45.816c2.928-2.929 2.928-7.677 0-10.607z"/><path d="m185.813 206.063c-3.874-1.471-8.203.477-9.673 4.351l-54.902 144.638c-1.47 3.872.478 8.203 4.35 9.673.876.333 1.775.49 2.66.49 3.025 0 5.876-1.844 7.013-4.841l54.902-144.638c1.47-3.872-.477-8.203-4.35-9.673z"/></g><path d="m386.318 234.23h-48.419c-8.534 0-15.453-6.918-15.453-15.453 0-8.534 6.918-15.453 15.453-15.453h48.419c8.534 0 15.453 6.918 15.453 15.453 0 8.534-6.919 15.453-15.453 15.453z" fill="#29cef6"/><path d="m465.642 296.041h-127.743c-8.534 0-15.453-6.918-15.453-15.453 0-8.534 6.918-15.453 15.453-15.453h127.742c8.534 0 15.453 6.918 15.453 15.453.001 8.534-6.918 15.453-15.452 15.453z" fill="#ffc328"/><path d="m427.695 357.852h-89.796c-8.534 0-15.453-6.918-15.453-15.453 0-8.534 6.918-15.453 15.453-15.453h89.796c8.534 0 15.453 6.918 15.453 15.453 0 8.534-6.919 15.453-15.453 15.453z" fill="#f78e36"/><path d="m512 147.737h-512v-43.318c0-17.076 13.843-30.919 30.919-30.919h450.162c17.076 0 30.919 13.843 30.919 30.919z" fill="#43809f"/><path d="m481.095 73.5v74.237h30.905v-43.305c0-17.083-13.837-30.932-30.905-30.932z" fill="#3a7190"/><circle cx="49.455" cy="111.126" fill="#29cef6" r="15.453"/><circle cx="109.37" cy="111.126" fill="#f3f3f3" r="15.453"/><circle cx="169.285" cy="111.126" fill="#f78e36" r="15.453"/></g></symbol>

<symbol id="mail" viewBox="0 0 543.232 543.232" fill-rule="evenodd" clip-rule="evenodd" stroke-linejoin="round" stroke-miterlimit="1.414"><rect x="64" y="64" style="fill:#ECEFF1;" width="384" height="384"/>
<polygon style="fill:#CFD8DC;" points="256,296.384 448,448 448,148.672 "/>
<path style="fill:#F44336;" d="M464,64h-16L256,215.616L64,64H48C21.504,64,0,85.504,0,112v288c0,26.496,21.504,48,48,48h16V148.672
	l192,147.68L448,148.64V448h16c26.496,0,48-21.504,48-48V112C512,85.504,490.496,64,464,64z"/></symbol>

<symbol id="linkedin" viewBox="0 0 543.232 543.232" fill-rule="evenodd" clip-rule="evenodd" stroke-linejoin="round" stroke-miterlimit="1.414"><g>
	<rect x="0" y="0" style="fill:#0084B1;" width="455.731" height="455.731"/>
	<g>
		<path style="fill:#FFFFFF;" d="M107.255,69.215c20.873,0.017,38.088,17.257,38.043,38.234c-0.05,21.965-18.278,38.52-38.3,38.043
			c-20.308,0.411-38.155-16.551-38.151-38.188C68.847,86.319,86.129,69.199,107.255,69.215z"/>
		<path style="fill:#FFFFFF;" d="M129.431,386.471H84.71c-5.804,0-10.509-4.705-10.509-10.509V185.18
			c0-5.804,4.705-10.509,10.509-10.509h44.721c5.804,0,10.509,4.705,10.509,10.509v190.783
			C139.939,381.766,135.235,386.471,129.431,386.471z"/>
		<path style="fill:#FFFFFF;" d="M386.884,241.682c0-39.996-32.423-72.42-72.42-72.42h-11.47c-21.882,0-41.214,10.918-52.842,27.606
			c-1.268,1.819-2.442,3.708-3.52,5.658c-0.373-0.056-0.594-0.085-0.599-0.075v-23.418c0-2.409-1.953-4.363-4.363-4.363h-55.795
			c-2.409,0-4.363,1.953-4.363,4.363V382.11c0,2.409,1.952,4.362,4.361,4.363l57.011,0.014c2.41,0.001,4.364-1.953,4.364-4.363
			V264.801c0-20.28,16.175-37.119,36.454-37.348c10.352-0.117,19.737,4.031,26.501,10.799c6.675,6.671,10.802,15.895,10.802,26.079
			v117.808c0,2.409,1.953,4.362,4.361,4.363l57.152,0.014c2.41,0.001,4.364-1.953,4.364-4.363V241.682z"/>
	</g>
</g></symbol>

<symbol id="github" fill-rule="evenodd" viewBox="0 0 543.232 543.232" clip-rule="evenodd" stroke-linejoin="round" stroke-miterlimit="1.414"><svg version="1.1" id="Capa_1" xmlns="http://www.w3.org/2000/svg" xmlns:xlink="http://www.w3.org/1999/xlink" x="0px" y="0px"
	 viewBox="0 0 512 512" style="enable-background:new 0 0 512 512;" xml:space="preserve">
<path style="fill:#5C6BC0;" d="M255.968,5.329C114.624,5.329,0,120.401,0,262.353c0,113.536,73.344,209.856,175.104,243.872
	c12.8,2.368,17.472-5.568,17.472-12.384c0-6.112-0.224-22.272-0.352-43.712c-71.2,15.52-86.24-34.464-86.24-34.464
	c-11.616-29.696-28.416-37.6-28.416-37.6c-23.264-15.936,1.728-15.616,1.728-15.616c25.696,1.824,39.2,26.496,39.2,26.496
	c22.848,39.264,59.936,27.936,74.528,21.344c2.304-16.608,8.928-27.936,16.256-34.368c-56.832-6.496-116.608-28.544-116.608-127.008
	c0-28.064,9.984-51.008,26.368-68.992c-2.656-6.496-11.424-32.64,2.496-68c0,0,21.504-6.912,70.4,26.336
	c20.416-5.696,42.304-8.544,64.096-8.64c21.728,0.128,43.648,2.944,64.096,8.672c48.864-33.248,70.336-26.336,70.336-26.336
	c13.952,35.392,5.184,61.504,2.56,68c16.416,17.984,26.304,40.928,26.304,68.992c0,98.72-59.84,120.448-116.864,126.816
	c9.184,7.936,17.376,23.616,17.376,47.584c0,34.368-0.32,62.08-0.32,70.496c0,6.88,4.608,14.88,17.6,12.352
	C438.72,472.145,512,375.857,512,262.353C512,120.401,397.376,5.329,255.968,5.329z"/></svg></symbol>

<symbol id="goodreads" viewBox="0 0 512 512" fill-rule="evenodd" clip-rule="evenodd" stroke-linejoin="round" stroke-miterlimit="1.414"><path d="M25.701,0h460.897C500.509,0,512,11.492,512,25.707v460.892   c0,13.91-11.491,25.401-25.401,25.401H25.701C11.492,512,0,500.509,0,486.599V25.707C0,11.492,11.492,0,25.701,0L25.701,0z    M377.717,315.732V72.882h-41.13v38.107h-0.6c-7.854-14.819-18.746-25.707-32.656-33.266c-14.22-7.26-29.329-10.887-46.277-10.887   c-22.983,0-42.04,4.232-57.758,13c-15.729,8.773-28.43,19.96-38.103,33.266c-9.683,13.61-16.338,28.734-20.565,45.368   c-3.938,16.633-6.056,32.661-6.056,48.385c0,18.147,2.418,35.384,7.265,51.418c5.136,16.328,12.391,30.538,22.374,42.64   c9.983,12.091,22.384,21.773,36.893,29.028c14.819,7.265,32.057,10.893,52.022,10.893c16.928,0,33.256-3.938,48.385-11.802   c15.13-7.555,26.621-19.656,34.165-35.984h0.91v17.538c0,14.52-1.509,28.129-4.237,40.53c-3.018,12.091-7.854,22.684-14.199,31.447   c-6.346,8.773-14.819,15.429-24.492,20.565c-9.983,4.836-22.095,7.265-36.604,7.265c-7.254,0-14.519-0.609-22.373-2.118   c-7.865-1.52-15.129-4.237-22.084-7.564c-6.645-3.328-12.091-7.865-16.628-13.311c-4.836-5.437-7.254-12.092-7.564-19.956h-43.549   c0.61,14.21,4.237,26.312,11.192,36.294c6.955,9.973,15.429,18.147,26.011,24.192c10.282,6.046,22.074,10.582,34.774,13.311   c12.701,2.718,25.402,4.227,37.803,4.227c42.35,0,73.497-10.882,93.153-32.356C367.734,391.637,377.717,358.98,377.717,315.732   L377.717,315.732z M255.545,302.721c-14.22,0-26.311-3.018-35.994-9.063c-9.374-5.746-17.238-13.61-22.983-23.594   c-5.746-9.683-9.973-20.564-12.391-32.361c-2.428-12.096-3.637-23.888-3.637-35.989c0-12.701,1.519-24.797,4.537-36.289   c2.728-11.796,7.564-22.079,13.91-30.848c6.355-9.073,14.22-16.028,24.203-21.475c9.972-5.141,22.074-7.859,35.984-7.859   c13.61,0,25.412,2.718,34.774,8.164c9.673,5.446,17.548,12.701,23.294,21.774c6.056,9.074,10.582,19.356,13.31,30.543   c2.708,11.497,3.928,22.684,3.928,34.48c0,12.396-1.509,24.497-4.237,36.893c-3.018,12.401-7.564,23.283-13.6,32.966   c-6.056,9.983-14.22,17.848-24.513,23.594C282.166,299.703,270.055,302.721,255.545,302.721L255.545,302.721z" fill="#010101" /></symbol>

<symbol id="quora" viewBox="0 0 427.67 427.6" fill-rule="evenodd" clip-rule="evenodd" stroke-linejoin="round" stroke-miterlimit="1.414"><path d="M386.516,335.593c0,0-2.093,30.699-30.001,30.699c-21.553,0-36.272-16.439-50.055-37.786 c39.148-34.171,64.008-85.199,64.008-142.221C370.469,83.403,289.565,0,189.765,0S9.061,83.403,9.061,186.286 s80.904,186.286,180.704,186.286c18.112,0,35.595-2.759,52.092-7.871c20.871,33.157,47.366,62.97,88.843,62.97 c84.421,0,87.91-92.077,87.91-92.077h-32.094L386.516,335.593L386.516,335.593z M189.765,341.873 c-58.185,0-105.353-69.659-105.353-155.587S131.58,30.699,189.765,30.699s105.352,69.659,105.352,155.587 c0,34.169-7.464,65.759-20.108,91.426c-14.283-20.392-31.428-37.757-55.941-43.285c-43.485-9.805-80.933,9.768-92.794,19.536 l11.163,23.024c0,0,11.285-6.488,39.267-0.008c17.631,4.083,31.332,28.551,47.034,56.623 C213.08,338.962,201.653,341.873,189.765,341.873z" /></symbol>

<symbol id="dribbble" fill-rule="evenodd" clip-rule="evenodd" stroke-linejoin="round" stroke-miterlimit="1.414"><path d="M8 16c-4.41 0-8-3.59-8-8s3.59-8 8-8 8 3.59 8 8-3.59 8-8 8zm6.747-6.905c-.234-.074-2.115-.635-4.257-.292.894 2.456 1.258 4.456 1.328 4.872 1.533-1.037 2.624-2.68 2.93-4.58zM10.67 14.3c-.102-.6-.5-2.688-1.46-5.18l-.044.014C5.312 10.477 3.93 13.15 3.806 13.4c1.158.905 2.614 1.444 4.194 1.444.947 0 1.85-.194 2.67-.543zm-7.747-1.72c.155-.266 2.03-3.37 5.555-4.51.09-.03.18-.056.27-.08-.173-.39-.36-.778-.555-1.16-3.413 1.02-6.723.977-7.023.97l-.003.208c0 1.755.665 3.358 1.756 4.57zM1.31 6.61c.307.005 3.122.017 6.318-.832-1.132-2.012-2.353-3.705-2.533-3.952-1.912.902-3.34 2.664-3.784 4.785zM6.4 1.368c.188.253 1.43 1.943 2.548 4 2.43-.91 3.46-2.293 3.582-2.468C11.323 1.827 9.736 1.176 8 1.176c-.55 0-1.087.066-1.6.19zm6.89 2.322c-.145.194-1.29 1.662-3.816 2.694.16.325.31.656.453.99.05.117.1.235.147.352 2.274-.286 4.533.172 4.758.22-.015-1.613-.59-3.094-1.543-4.257z"/></symbol>

<symbol id="facebook" width="50" height="50" fill-rule="evenodd" clip-rule="evenodd" stroke-linejoin="round" stroke-miterlimit="1.414"><path d="M15.117 0H.883C.395 0 0 .395 0 .883v14.234c0 .488.395.883.883.883h7.663V9.804H6.46V7.39h2.086V5.607c0-2.066 1.262-3.19 3.106-3.19.883 0 1.642.064 1.863.094v2.16h-1.28c-1 0-1.195.48-1.195 1.18v1.54h2.39l-.31 2.42h-2.08V16h4.077c.488 0 .883-.395.883-.883V.883C16 .395 15.605 0 15.117 0" fill-rule="nonzero"/></symbol>

<symbol id="flickr" fill-rule="evenodd" clip-rule="evenodd" stroke-linejoin="round" stroke-miterlimit="1.414"><path d="M0 8c0 2.05 1.662 3.71 3.71 3.71 2.05 0 3.713-1.66 3.713-3.71S5.76 4.29 3.71 4.29C1.663 4.29 0 5.95 0 8zm8.577 0c0 2.05 1.662 3.71 3.712 3.71C14.33 11.71 16 10.05 16 8s-1.662-3.71-3.71-3.71c-2.05 0-3.713 1.66-3.713 3.71z"/></symbol>

<symbol id="googleplus" fill-rule="evenodd" clip-rule="evenodd" stroke-linejoin="round" stroke-miterlimit="1.414"><path d="M5.09 7.273v1.745h2.89c-.116.75-.873 2.197-2.887 2.197-1.737 0-3.155-1.44-3.155-3.215S3.353 4.785 5.09 4.785c.99 0 1.652.422 2.03.786l1.382-1.33c-.887-.83-2.037-1.33-3.41-1.33C2.275 2.91 0 5.19 0 8s2.276 5.09 5.09 5.09c2.94 0 4.888-2.065 4.888-4.974 0-.334-.036-.59-.08-.843H5.09zm10.91 0h-1.455V5.818H13.09v1.455h-1.454v1.454h1.455v1.455h1.46V8.727H16"/></symbol>

<symbol id="instagram" fill-rule="evenodd" clip-rule="evenodd" stroke-linejoin="round" stroke-miterlimit="1.414"><path d="M8 0C5.827 0 5.555.01 4.702.048 3.85.088 3.27.222 2.76.42c-.526.204-.973.478-1.417.923-.445.444-.72.89-.923 1.417-.198.51-.333 1.09-.372 1.942C.008 5.555 0 5.827 0 8s.01 2.445.048 3.298c.04.852.174 1.433.372 1.942.204.526.478.973.923 1.417.444.445.89.72 1.417.923.51.198 1.09.333 1.942.372.853.04 1.125.048 3.298.048s2.445-.01 3.298-.048c.852-.04 1.433-.174 1.942-.372.526-.204.973-.478 1.417-.923.445-.444.72-.89.923-1.417.198-.51.333-1.09.372-1.942.04-.853.048-1.125.048-3.298s-.01-2.445-.048-3.298c-.04-.852-.174-1.433-.372-1.942-.204-.526-.478-.973-.923-1.417-.444-.445-.89-.72-1.417-.923-.51-.198-1.09-.333-1.942-.372C10.445.008 10.173 0 8 0zm0 1.44c2.136 0 2.39.01 3.233.048.78.036 1.203.166 1.485.276.374.145.64.318.92.598.28.28.453.546.598.92.11.282.24.705.276 1.485.038.844.047 1.097.047 3.233s-.01 2.39-.05 3.233c-.04.78-.17 1.203-.28 1.485-.15.374-.32.64-.6.92-.28.28-.55.453-.92.598-.28.11-.71.24-1.49.276-.85.038-1.1.047-3.24.047s-2.39-.01-3.24-.05c-.78-.04-1.21-.17-1.49-.28-.38-.15-.64-.32-.92-.6-.28-.28-.46-.55-.6-.92-.11-.28-.24-.71-.28-1.49-.03-.84-.04-1.1-.04-3.23s.01-2.39.04-3.24c.04-.78.17-1.21.28-1.49.14-.38.32-.64.6-.92.28-.28.54-.46.92-.6.28-.11.7-.24 1.48-.28.85-.03 1.1-.04 3.24-.04zm0 2.452c-2.27 0-4.108 1.84-4.108 4.108 0 2.27 1.84 4.108 4.108 4.108 2.27 0 4.108-1.84 4.108-4.108 0-2.27-1.84-4.108-4.108-4.108zm0 6.775c-1.473 0-2.667-1.194-2.667-2.667 0-1.473 1.194-2.667 2.667-2.667 1.473 0 2.667 1.194 2.667 2.667 0 1.473-1.194 2.667-2.667 2.667zm5.23-6.937c0 .53-.43.96-.96.96s-.96-.43-.96-.96.43-.96.96-.96.96.43.96.96z"/></symbol>

<symbol id="pinterest" fill-rule="evenodd" clip-rule="evenodd" stroke-linejoin="round" stroke-miterlimit="1.414"><path d="M8 0C3.582 0 0 3.582 0 8c0 3.39 2.108 6.285 5.084 7.45-.07-.633-.133-1.604.028-2.295.146-.625.938-3.977.938-3.977s-.24-.48-.24-1.188c0-1.11.646-1.943 1.448-1.943.683 0 1.012.513 1.012 1.127 0 .687-.436 1.713-.662 2.664-.19.797.4 1.445 1.185 1.445 1.42 0 2.514-1.498 2.514-3.662 0-1.91-1.376-3.25-3.342-3.25-2.276 0-3.61 1.71-3.61 3.47 0 .69.263 1.43.593 1.83.066.08.075.15.057.23-.06.25-.196.8-.223.91-.035.15-.115.18-.268.11C3.516 10.46 2.89 9 2.89 7.82c0-2.52 1.834-4.84 5.287-4.84 2.774 0 4.932 1.98 4.932 4.62 0 2.76-1.74 4.98-4.16 4.98-.81 0-1.57-.42-1.84-.92l-.5 1.9c-.18.698-.67 1.57-1 2.1.75.23 1.54.357 2.37.357 4.41 0 8-3.58 8-8s-3.59-8-8-8z" fill-rule="nonzero"/></symbol>

<symbol id="rss" viewBox="0 0 543.232 543.232" fill-rule="evenodd" clip-rule="evenodd" stroke-linejoin="round" stroke-miterlimit="1.414"><g>
	<circle style="fill:#FFA000;" cx="64" cy="384" r="64"/>
	<path style="fill:#FFA000;" d="M0,149.344v85.344c117.632,0,213.344,95.68,213.344,213.312h85.312
		C298.656,283.328,164.672,149.344,0,149.344z"/>
	<path style="fill:#FFA000;" d="M0,0v85.344C200,85.344,362.688,248,362.688,448H448C448,200.96,247.04,0,0,0z"/>
</g></symbol>

<symbol id="stackoverflow" class="svg-icon" xmlns="http://www.w3.org/2000/svg" fill-rule="evenodd" clip-rule="evenodd" stroke-linejoin="round" stroke-miterlimit="1.414"><path d="M12.658 14.577v-4.27h1.423V16H1.23v-5.693h1.42v4.27h10.006zm-8.583-1.423h7.16V11.73h-7.16v1.424zm.173-3.235l6.987 1.46.3-1.38L4.55 8.54l-.302 1.38zm.906-3.37l6.47 3.02.602-1.3-6.47-3.02-.602 1.29zm1.81-3.19l5.478 4.57.906-1.08L7.87 2.28l-.9 1.078zM10.502 0L9.338.863l4.27 5.735 1.164-.862L10.5 0z"/></symbol>

<symbol id="twitter" fill-rule="evenodd" clip-rule="evenodd" stroke-linejoin="round" stroke-miterlimit="1.414"><path d="M16 3.038c-.59.26-1.22.437-1.885.517.677-.407 1.198-1.05 1.443-1.816-.634.37-1.337.64-2.085.79-.598-.64-1.45-1.04-2.396-1.04-1.812 0-3.282 1.47-3.282 3.28 0 .26.03.51.085.75-2.728-.13-5.147-1.44-6.766-3.42C.83 2.58.67 3.14.67 3.75c0 1.14.58 2.143 1.46 2.732-.538-.017-1.045-.165-1.487-.41v.04c0 1.59 1.13 2.918 2.633 3.22-.276.074-.566.114-.865.114-.21 0-.41-.02-.61-.058.42 1.304 1.63 2.253 3.07 2.28-1.12.88-2.54 1.404-4.07 1.404-.26 0-.52-.015-.78-.045 1.46.93 3.18 1.474 5.04 1.474 6.04 0 9.34-5 9.34-9.33 0-.14 0-.28-.01-.42.64-.46 1.2-1.04 1.64-1.7z" fill-rule="nonzero"/></symbol>

<symbol id="youtube" fill-rule="evenodd" clip-rule="evenodd" stroke-linejoin="round" stroke-miterlimit="1.414"><path d="M0 7.345c0-1.294.16-2.59.16-2.59s.156-1.1.636-1.587c.608-.637 1.408-.617 1.764-.684C3.84 2.36 8 2.324 8 2.324s3.362.004 5.6.166c.314.038.996.04 1.604.678.48.486.636 1.588.636 1.588S16 6.05 16 7.346v1.258c0 1.296-.16 2.59-.16 2.59s-.156 1.102-.636 1.588c-.608.638-1.29.64-1.604.678-2.238.162-5.6.166-5.6.166s-4.16-.037-5.44-.16c-.356-.067-1.156-.047-1.764-.684-.48-.487-.636-1.587-.636-1.587S0 9.9 0 8.605v-1.26zm6.348 2.73V5.58l4.323 2.255-4.32 2.24z"/></symbol>

<symbol id="mastodon" fill-rule="evenodd" clip-rule="evenodd" stroke-linejoin="round" stroke-miterlimit="1.414">
<path transform="scale(0.07)" d="M211.80734 139.0875c-3.18125 16.36625-28.4925 34.2775-57.5625 37.74875-15.15875 1.80875-30.08375 3.47125-45.99875 2.74125-26.0275-1.1925-46.565-6.2125-46.565-6.2125 0 2.53375.15625 4.94625.46875 7.2025 3.38375 25.68625 25.47 27.225 46.39125 27.9425 21.11625.7225 39.91875-5.20625 39.91875-5.20625l.8675 19.09s-14.77 7.93125-41.08125 9.39c-14.50875.7975-32.52375-.365-53.50625-5.91875C9.23234 213.82 1.40609 165.31125.20859 116.09125c-.365-14.61375-.14-28.39375-.14-39.91875 0-50.33 32.97625-65.0825 32.97625-65.0825C49.67234 3.45375 78.20359.2425 107.86484 0h.72875c29.66125.2425 58.21125 3.45375 74.8375 11.09 0 0 32.975 14.7525 32.975 65.0825 0 0 .41375 37.13375-4.59875 62.915"/>
<path transform="scale(0.07)" fill="#FFF" d="M177.50984 80.077v60.94125h-24.14375v-59.15c0-12.46875-5.24625-18.7975-15.74-18.7975-11.6025 0-17.4175 7.5075-17.4175 22.3525v32.37625H96.20734V85.42325c0-14.845-5.81625-22.3525-17.41875-22.3525-10.49375 0-15.74 6.32875-15.74 18.7975v59.15H38.90484V80.077c0-12.455 3.17125-22.3525 9.54125-29.675 6.56875-7.3225 15.17125-11.07625 25.85-11.07625 12.355 0 21.71125 4.74875 27.8975 14.2475l6.01375 10.08125 6.015-10.08125c6.185-9.49875 15.54125-14.2475 27.8975-14.2475 10.6775 0 19.28 3.75375 25.85 11.07625 6.36875 7.3225 9.54 17.22 9.54 29.675"/>
</symbol>


</svg>
